<svg width="25" height="17" viewBox="0 0 25 17" fill="none" xmlns="http://www.w3.org/2000/svg">
<rect x="13.5" y="0.5" width="11" height="11" rx="1.5" fill="#FFDAB9" stroke="#FFDAB9" stroke-linejoin="round"/>
<path d="M18.739 2.881C18.703 2.989 18.667 3.151 18.64 3.277C18.487 4.033 18.334 5.455 18.334 6.688C18.334 7.858 18.586 8.938 18.865 9.784L18.208 9.982C17.947 9.181 17.704 7.903 17.704 6.76C17.704 5.527 17.884 4.069 17.965 3.295C17.983 3.133 17.992 2.971 17.992 2.854L18.739 2.881ZM17.29 3.988C18.874 3.988 20.44 3.862 21.682 3.583L21.691 4.249C20.395 4.474 18.622 4.609 17.281 4.609C16.894 4.609 16.192 4.573 15.823 4.555L15.805 3.88C16.12 3.934 16.903 3.988 17.29 3.988ZM21.043 5.05C20.989 5.167 20.908 5.41 20.854 5.554C20.323 7.219 19.423 8.47 18.478 9.199C17.902 9.64 17.182 9.973 16.543 9.973C15.949 9.973 15.481 9.613 15.481 8.848C15.481 7.615 16.624 6.346 17.956 5.833C18.559 5.599 19.288 5.464 19.873 5.464C21.574 5.464 22.645 6.454 22.645 7.714C22.645 9.001 21.79 10.126 19.702 10.459L19.315 9.856C20.935 9.676 21.943 8.839 21.943 7.678C21.943 6.805 21.205 6.04 19.864 6.04C19.108 6.04 18.442 6.256 17.983 6.463C16.966 6.913 16.156 7.903 16.156 8.731C16.156 9.1 16.336 9.28 16.669 9.28C17.119 9.28 17.704 9.028 18.28 8.524C19.081 7.822 19.819 6.85 20.233 5.392C20.269 5.257 20.314 5.014 20.323 4.87L21.043 5.05Z" fill="black"/>
<rect x="0.5" y="5.5" width="11" height="11" rx="1.5" stroke="#FFDAB9" stroke-linejoin="round"/>
<path d="M5.709 7.61H6.393L9.003 14H8.139L7.383 12.128H4.701L3.954 14H3.09L5.709 7.61ZM7.203 11.498L6.051 8.546L4.863 11.498H7.203Z" fill="#FFDAB9"/>
</svg>
