<svg width="22" height="16" viewBox="0 0 22 16" fill="none" xmlns="http://www.w3.org/2000/svg">
<rect x="12.5" y="0.5" width="9" height="9" rx="1.5" fill="#6E0007" stroke="#6E0007" stroke-linejoin="round"/>
<path d="M16.768 1.672C16.736 1.768 16.704 1.912 16.68 2.024C16.544 2.696 16.408 3.96 16.408 5.056C16.408 6.096 16.632 7.056 16.88 7.808L16.296 7.984C16.064 7.272 15.848 6.136 15.848 5.12C15.848 4.024 16.008 2.728 16.08 2.04C16.096 1.896 16.104 1.752 16.104 1.648L16.768 1.672ZM15.48 2.656C16.888 2.656 18.28 2.544 19.384 2.296L19.392 2.888C18.24 3.088 16.664 3.208 15.472 3.208C15.128 3.208 14.504 3.176 14.176 3.16L14.16 2.56C14.44 2.608 15.136 2.656 15.48 2.656ZM18.816 3.6C18.768 3.704 18.696 3.92 18.648 4.048C18.176 5.528 17.376 6.64 16.536 7.288C16.024 7.68 15.384 7.976 14.816 7.976C14.288 7.976 13.872 7.656 13.872 6.976C13.872 5.88 14.888 4.752 16.072 4.296C16.608 4.088 17.256 3.968 17.776 3.968C19.288 3.968 20.24 4.848 20.24 5.968C20.24 7.112 19.48 8.112 17.624 8.408L17.28 7.872C18.72 7.712 19.616 6.968 19.616 5.936C19.616 5.16 18.96 4.48 17.768 4.48C17.096 4.48 16.504 4.672 16.096 4.856C15.192 5.256 14.472 6.136 14.472 6.872C14.472 7.2 14.632 7.36 14.928 7.36C15.328 7.36 15.848 7.136 16.36 6.688C17.072 6.064 17.728 5.2 18.096 3.904C18.128 3.784 18.168 3.568 18.176 3.44L18.816 3.6Z" fill="#FFEDBC"/>
<rect x="0.5" y="6.5" width="9" height="9" rx="1.5" stroke="#6E0007" stroke-linejoin="round"/>
<path d="M4.708 8.32H5.316L7.636 14H6.868L6.196 12.336H3.812L3.148 14H2.38L4.708 8.32ZM6.036 11.776L5.012 9.152L3.956 11.776H6.036Z" fill="#6E0007"/>
</svg>
