<svg width="40" height="57" viewBox="0 0 40 57" fill="none" xmlns="http://www.w3.org/2000/svg">
<path d="M39.8591 7.10368C39.6574 6.05015 39.1583 5.06668 38.4137 4.25581C37.3548 3.12479 36.0689 2.20058 34.6293 1.53596C33.1898 0.871331 31.6248 0.479307 30.0238 0.382268C28.4228 0.285229 26.8171 0.485075 25.2984 0.970397C23.7797 1.45572 22.3778 2.21701 21.1726 3.2108L21.0698 3.29769C19.6312 1.98912 17.8777 1.0253 15.9578 0.487915C14.038 -0.0494687 12.0083 -0.144577 10.041 0.210654C8.07361 0.565884 6.2265 1.36098 4.6562 2.52856C3.0859 3.69613 1.83869 5.20177 1.02028 6.91786C0.268251 8.48825 -0.076534 10.2035 0.0142132 11.9231C0.10496 13.6427 0.628648 15.3176 1.54234 16.8106C1.95221 17.4838 2.43389 18.1161 2.97997 18.6979C3.54318 19.3013 18.7474 35.1745 18.8992 35.3338C18.9173 35.3536 18.9398 35.3695 18.9651 35.3803C18.9904 35.3911 19.018 35.3967 19.0458 35.3965C19.0509 35.3965 19.0586 35.3941 19.0663 35.3941C19.0771 35.394 19.0877 35.3915 19.0972 35.3869C19.1474 35.3755 19.1908 35.346 19.2181 35.3048L19.2978 35.1817L19.393 35.0297L20.7997 32.8238C24.7011 26.7057 29.9604 20.9327 36.4335 15.6666C36.8503 15.327 37.2365 14.9557 37.5882 14.5564C38.9732 13.0025 39.809 11.0829 39.9799 9.06341C40.0289 8.408 39.9882 7.74942 39.8591 7.10368Z" fill="url(#paint0_linear_19_264)"/>
<path d="M18.7936 24.0973C18.7999 24.0419 18.8468 24 18.9026 24V24C18.9586 24 19.0056 24.0423 19.0116 24.098L22.1419 53.2981C22.3539 55.2754 20.8044 57 18.8157 57V57C16.8191 57 15.2671 55.2624 15.4916 53.2785L18.7936 24.0973Z" fill="#766B4A"/>
<path d="M20.1869 37.1577L22.5551 35.9891C22.7792 35.8785 22.8617 35.6123 22.7393 35.3944C22.6169 35.1766 22.3361 35.0896 22.112 35.2002L19.7438 36.3688C19.5197 36.4794 19.4373 36.7456 19.5596 36.9635C19.682 37.1813 19.9628 37.2683 20.1869 37.1577Z" fill="#AF9E69"/>
<defs>
<linearGradient id="paint0_linear_19_264" x1="20" y1="0" x2="20" y2="35.3965" gradientUnits="userSpaceOnUse">
<stop stop-color="#6A9113"/>
<stop offset="1" stop-color="#285100"/>
</linearGradient>
</defs>
</svg>
