<svg width="60" height="68" viewBox="0 0 60 68" fill="none" xmlns="http://www.w3.org/2000/svg">
<g filter="url(#filter0_d_37_2)">
<path d="M49.8591 13.1037C49.6574 12.0502 49.1583 11.0667 48.4137 10.2558C47.3548 9.12479 46.0689 8.20058 44.6293 7.53596C43.1898 6.87133 41.6248 6.47931 40.0238 6.38227C38.4228 6.28523 36.8171 6.48507 35.2984 6.9704C33.7797 7.45572 32.3778 8.21701 31.1726 9.2108L31.0698 9.29769C29.6312 7.98912 27.8777 7.0253 25.9578 6.48792C24.038 5.95053 22.0083 5.85542 20.041 6.21065C18.0736 6.56588 16.2265 7.36098 14.6562 8.52856C13.0859 9.69613 11.8387 11.2018 11.0203 12.9179C10.2683 14.4882 9.92347 16.2035 10.0142 17.9231C10.105 19.6427 10.6286 21.3176 11.5423 22.8106C11.9522 23.4838 12.4339 24.1161 12.98 24.6979C13.5432 25.3013 28.7474 41.1745 28.8992 41.3338C28.9173 41.3536 28.9398 41.3695 28.9651 41.3803C28.9904 41.3911 29.018 41.3967 29.0458 41.3965C29.0509 41.3965 29.0586 41.3941 29.0663 41.3941C29.0771 41.394 29.0877 41.3915 29.0972 41.3869C29.1474 41.3755 29.1908 41.346 29.2181 41.3048L29.2978 41.1817L29.393 41.0297L30.7997 38.8238C34.7011 32.7057 39.9604 26.9328 46.4335 21.6666C46.8503 21.327 47.2365 20.9557 47.5882 20.5564C48.9732 19.0025 49.809 17.0829 49.9799 15.0634C50.0289 14.408 49.9882 13.7494 49.8591 13.1037Z" fill="url(#paint0_linear_37_2)"/>
<path d="M29.9613 44.0967C29.9847 44.0383 30.0413 44 30.1042 44V44C30.1682 44 30.2255 44.0396 30.2481 44.0994L32.5964 50.2962C33.2745 52.0855 31.9526 54 30.0392 54V54C28.1045 54 26.7816 52.046 27.5001 50.2497L29.9613 44.0967Z" fill="#766B4A"/>
<path d="M30.8489 47.1577L33.2171 45.9891C33.4412 45.8785 33.5236 45.6123 33.4012 45.3944C33.2789 45.1766 32.998 45.0896 32.774 45.2002L30.4057 46.3688C30.1817 46.4794 30.0992 46.7456 30.2216 46.9635C30.344 47.1813 30.6248 47.2683 30.8489 47.1577Z" fill="#AF9E69"/>
</g>
<defs>
<filter id="filter0_d_37_2" x="0" y="0" width="60" height="68" filterUnits="userSpaceOnUse" color-interpolation-filters="sRGB">
<feFlood flood-opacity="0" result="BackgroundImageFix"/>
<feColorMatrix in="SourceAlpha" type="matrix" values="0 0 0 0 0 0 0 0 0 0 0 0 0 0 0 0 0 0 127 0" result="hardAlpha"/>
<feOffset dy="4"/>
<feGaussianBlur stdDeviation="5"/>
<feComposite in2="hardAlpha" operator="out"/>
<feColorMatrix type="matrix" values="0 0 0 0 0 0 0 0 0 0 0 0 0 0 0 0 0 0 0.25 0"/>
<feBlend mode="normal" in2="BackgroundImageFix" result="effect1_dropShadow_37_2"/>
<feBlend mode="normal" in="SourceGraphic" in2="effect1_dropShadow_37_2" result="shape"/>
</filter>
<linearGradient id="paint0_linear_37_2" x1="30" y1="6" x2="30" y2="41.3965" gradientUnits="userSpaceOnUse">
<stop stop-color="#6A9113"/>
<stop offset="1" stop-color="#285100"/>
</linearGradient>
</defs>
</svg>
