<svg width="12" height="11" viewBox="0 0 12 11" fill="none" xmlns="http://www.w3.org/2000/svg">
<path d="M12 5.33897C12 4.54485 11.0045 3.79226 9.47819 3.32556C9.83041 1.77151 9.67387 0.535119 8.9841 0.139277C8.82511 0.0464258 8.63922 0.00244343 8.4362 0.00244343V0.547336C8.54872 0.547336 8.63922 0.569327 8.71504 0.610866C9.0477 0.801457 9.19201 1.52717 9.0795 2.46057C9.05259 2.69026 9.00856 2.93216 8.95475 3.17895C8.47534 3.06166 7.9519 2.97125 7.40155 2.91261C7.07134 2.46057 6.7289 2.05007 6.38402 1.69088C7.18141 0.950508 7.92988 0.544893 8.43865 0.544893V0C7.766 0 6.88545 0.478919 5.99511 1.3097C5.10477 0.483806 4.22422 0.0097739 3.55157 0.0097739V0.554667C4.05789 0.554667 4.80881 0.957839 5.6062 1.69332C5.26376 2.05251 4.92132 2.46057 4.59601 2.91261C4.04321 2.97125 3.51977 3.06166 3.04036 3.18139C2.9841 2.93705 2.94252 2.70003 2.91317 2.47279C2.79821 1.53938 2.94007 0.813674 3.27028 0.62064C3.34366 0.576658 3.43905 0.55711 3.55157 0.55711V0.0122173C3.34611 0.0122173 3.16021 0.0561997 2.99878 0.149051C2.31146 0.544893 2.15736 1.77884 2.51203 3.328C0.990624 3.79715 0 4.54729 0 5.33897C0 6.1331 0.995515 6.88569 2.52181 7.35239C2.16959 8.90643 2.32613 10.1428 3.0159 10.5387C3.17489 10.6315 3.36078 10.6755 3.56625 10.6755C4.23889 10.6755 5.11945 10.1966 6.00978 9.3658C6.90012 10.1917 7.78068 10.6657 8.45332 10.6657C8.65878 10.6657 8.84468 10.6217 9.00612 10.5289C9.69344 10.1331 9.84753 8.8991 9.49287 7.34994C11.0094 6.88324 12 6.13066 12 5.33897ZM8.81533 3.70918C8.72483 4.02439 8.61231 4.34937 8.48512 4.67435C8.38483 4.47887 8.27966 4.2834 8.1647 4.08792C8.05218 3.89244 7.93233 3.70185 7.81248 3.51615C8.15981 3.56746 8.4949 3.63099 8.81533 3.70918ZM7.69507 6.31147C7.50428 6.64134 7.3086 6.9541 7.10558 7.24488C6.74113 7.27664 6.37179 7.29374 6 7.29374C5.63066 7.29374 5.26131 7.27664 4.89931 7.24732C4.69629 6.95655 4.49817 6.64623 4.30738 6.3188C4.12148 5.99871 3.95271 5.67373 3.79861 5.3463C3.95027 5.01888 4.12148 4.69145 4.30493 4.37136C4.49572 4.04149 4.6914 3.72873 4.89442 3.43796C5.25887 3.40619 5.62821 3.38909 6 3.38909C6.36934 3.38909 6.73869 3.40619 7.10069 3.43551C7.30371 3.72629 7.50183 4.03661 7.69262 4.36403C7.87852 4.68412 8.04729 5.0091 8.20139 5.33653C8.04729 5.66395 7.87852 5.99138 7.69507 6.31147ZM8.48512 5.99382C8.6172 6.32125 8.72972 6.64867 8.82267 6.96632C8.50224 7.04451 8.1647 7.11049 7.81492 7.1618C7.93477 6.97365 8.05463 6.78062 8.16714 6.5827C8.27966 6.38722 8.38483 6.1893 8.48512 5.99382ZM6.00489 8.601C5.77742 8.36643 5.54994 8.10498 5.32491 7.81909C5.54505 7.82886 5.77008 7.83619 5.99755 7.83619C6.22748 7.83619 6.45495 7.83131 6.67754 7.81909C6.4574 8.10498 6.22992 8.36643 6.00489 8.601ZM4.18508 7.1618C3.83775 7.11049 3.50265 7.04696 3.18223 6.96876C3.27273 6.65356 3.38524 6.32858 3.51243 6.0036C3.61272 6.19907 3.7179 6.39455 3.83286 6.59003C3.94782 6.7855 4.06523 6.97609 4.18508 7.1618ZM5.99266 2.07695C6.22014 2.31152 6.44762 2.57297 6.67265 2.85885C6.45251 2.84908 6.22748 2.84175 6 2.84175C5.77008 2.84175 5.5426 2.84664 5.32002 2.85885C5.54016 2.57297 5.76763 2.31152 5.99266 2.07695ZM4.18263 3.51615C4.06278 3.70429 3.94293 3.89733 3.83041 4.09525C3.7179 4.29073 3.61272 4.4862 3.51243 4.68168C3.38035 4.35426 3.26784 4.02683 3.17489 3.70918C3.49531 3.63343 3.83286 3.56746 4.18263 3.51615ZM1.96902 6.57537C1.10314 6.2064 0.543009 5.7226 0.543009 5.33897C0.543009 4.95535 1.10314 4.4691 1.96902 4.10258C2.17937 4.01217 2.40929 3.93154 2.64656 3.85579C2.78598 4.33471 2.96943 4.83318 3.1969 5.34386C2.97187 5.8521 2.79087 6.34812 2.65389 6.8246C2.41174 6.74885 2.18182 6.66577 1.96902 6.57537ZM3.28496 10.0671C2.9523 9.87649 2.80799 9.15078 2.92051 8.21737C2.94741 7.98769 2.99144 7.74579 3.04525 7.499C3.52466 7.61628 4.0481 7.70669 4.59845 7.76533C4.92866 8.21737 5.2711 8.62788 5.61598 8.98707C4.81859 9.72744 4.07012 10.1331 3.56135 10.1331C3.45128 10.1306 3.35834 10.1086 3.28496 10.0671ZM9.08683 8.20516C9.20179 9.13856 9.05993 9.86427 8.72972 10.0573C8.65634 10.1013 8.56095 10.1208 8.44843 10.1208C7.94211 10.1208 7.1912 9.71766 6.3938 8.98218C6.73624 8.62299 7.07868 8.21493 7.404 7.76289C7.95679 7.70425 8.48023 7.61384 8.95964 7.49411C9.0159 7.7409 9.05993 7.97791 9.08683 8.20516ZM10.0285 6.57537C9.81818 6.66577 9.58826 6.74641 9.351 6.82216C9.21158 6.34324 9.02813 5.84477 8.80065 5.33408C9.02568 4.82584 9.20669 4.32982 9.34366 3.85335C9.58581 3.92909 9.81574 4.01217 10.031 4.10258C10.8969 4.47154 11.457 4.95535 11.457 5.33897C11.4545 5.7226 10.8944 6.20885 10.0285 6.57537Z" fill="#6E0007"/>
<path d="M5.99756 6.45565C6.61491 6.45565 7.11538 5.9557 7.11538 5.33898C7.11538 4.72227 6.61491 4.22232 5.99756 4.22232C5.38021 4.22232 4.87975 4.72227 4.87975 5.33898C4.87975 5.9557 5.38021 6.45565 5.99756 6.45565Z" fill="#6E0007"/>
</svg>
